<svg width="60" height="48" viewBox="0 0 60 48" fill="none" xmlns="http://www.w3.org/2000/svg">
<path d="M36.6598 14.2299L45.4658 6.30438C45.5256 6.25063 45.5237 6.15616 45.4619 6.10463L45.2646 5.94113C45.2145 5.89951 45.1413 5.90081 45.0928 5.9442L39.704 10.7356C39.7004 10.7388 39.6968 10.7418 39.6927 10.7447C37.1933 12.5934 34.0657 11.6897 32.7742 11.1882C29.6599 9.97875 25.7053 9.876 23.514 12.1083C22.8455 12.7891 22.5618 13.1587 22.4414 13.349C22.3889 13.432 22.4411 13.541 22.5384 13.552C28.3277 14.2097 32.2712 14.5695 36.7462 13.2047C36.749 13.2039 36.7518 13.203 36.7547 13.2018C36.8594 13.163 36.9649 13.124 37.0701 13.0851L35.6593 14.3455C25.6898 15.378 15.1246 12.6909 10.8705 11.7897C10.753 11.7648 10.56 11.93 10.6918 12.0801C10.7733 12.1732 10.8983 12.2065 10.9271 12.2146C17.0093 13.9659 25.6768 16.3693 34.6671 15.2321L33.0104 16.7123C32.9139 16.7987 32.9859 16.9576 33.1141 16.942L33.6885 16.8717C33.7155 16.8685 33.7407 16.857 33.7608 16.8388L35.7094 15.0852C39.1003 14.5521 42.5246 13.4947 45.8616 11.6894C45.8696 11.685 45.8771 11.68 45.8841 11.6743L46.3907 11.2543C43.4381 12.8683 40.0986 13.7834 36.6598 14.2299Z" fill="black" style="fill:black;fill-opacity:1;"/>
<path d="M32.6348 10.4836C34.3868 10.3565 35.7282 9.19597 35.631 7.8898C35.5345 6.58356 34.0361 5.62643 32.2839 5.75307C30.533 5.87917 29.1903 7.04019 29.2872 8.34636C29.3841 9.65246 30.8825 10.6091 32.6348 10.4836Z" fill="black" style="fill:black;fill-opacity:1;"/>
<path d="M42.8667 22.5031H42.768C42.3479 24.2817 41.8785 26.1099 41.3597 27.8145L40.8164 29.7414H44.8679L44.3244 27.8145C43.8055 26.1098 43.3362 24.2569 42.8667 22.5031Z" fill="black" style="fill:black;fill-opacity:1;"/>
<path d="M16.4205 22.5031H16.3217C15.9018 24.2817 15.4323 26.1099 14.9136 27.8145L14.3701 29.7414H18.4217L17.8781 27.8145C17.3594 26.1098 16.89 24.2569 16.4205 22.5031Z" fill="black" style="fill:black;fill-opacity:1;"/>
<path d="M54.6333 25.4259C54.6333 11.6381 43.4561 0.460815 29.6682 0.460815C15.8804 0.460815 4.70312 11.6381 4.70312 25.4259C4.70312 30.3068 6.10529 34.8596 8.52664 38.7061H50.81C53.2314 34.8596 54.6333 30.3068 54.6333 25.4259ZM29.6682 0.738208C40.9083 0.738208 50.3929 8.25045 53.3778 18.5278C44.1443 14.8657 32.0463 16.3298 23.5854 18.4865C15.217 20.6193 9.82743 19.8451 5.95561 18.5379C8.93735 8.25552 18.4244 0.738208 29.6682 0.738208ZM20.2988 36.3622L19.0635 32.0389H13.7028L12.4673 36.3622H9.47831L14.7157 20.2056H18.1742L23.4117 36.3622H20.2988ZM30.166 36.6587C26.1144 36.6587 22.8782 33.694 22.8782 28.3334C22.8782 23.0466 26.1885 19.9091 30.2896 19.9091C32.3152 19.9091 33.9458 20.8479 34.9588 21.9596L33.4023 23.763C32.5624 22.9477 31.5989 22.4782 30.3389 22.4782C27.7695 22.4782 25.8921 24.6523 25.8921 28.2592C25.8921 31.8908 27.5968 34.1141 30.2896 34.1141C31.6977 34.1141 32.8094 33.546 33.6989 32.5577L35.2799 34.3118C33.9211 35.8682 32.2412 36.6587 30.166 36.6587ZM45.5103 32.039H40.1494L38.9142 36.3623H35.9249L41.1622 20.2057H44.6209L49.8582 36.3623H46.7456L45.5103 32.039Z" fill="black" style="fill:black;fill-opacity:1;"/>
<path d="M8.08941 41.7029C8.35613 41.8214 8.56057 41.9914 8.70279 42.2126C8.84502 42.4339 8.91614 42.6966 8.91614 43.0008C8.91614 43.3011 8.84502 43.5629 8.70279 43.7861C8.56057 44.0093 8.35613 44.1802 8.08941 44.2987C7.8227 44.4173 7.50959 44.4765 7.1501 44.4765H6.21379V45.6736H5.44336V41.5251H7.1501C7.50959 41.5251 7.8227 41.5844 8.08941 41.7029ZM7.87907 43.6112C8.05286 43.469 8.13979 43.2655 8.13979 43.0008C8.13979 42.7362 8.05286 42.5327 7.87907 42.3904C7.70512 42.2482 7.45031 42.1771 7.11455 42.1771H6.21379V43.8246H7.11455C7.45031 43.8245 7.70512 43.7535 7.87907 43.6112Z" fill="black" style="fill:black;fill-opacity:1;"/>
<path d="M12.0272 44.7135H9.95303L9.54409 45.6736H8.75L10.6168 41.5251H11.3753L13.248 45.6736H12.442L12.0272 44.7135ZM11.7724 44.109L10.9901 42.2956L10.2138 44.109H11.7724Z" fill="black" style="fill:black;fill-opacity:1;"/>
<path d="M13.7168 41.5251H15.5302C15.9726 41.5251 16.3658 41.6111 16.7095 41.783C17.0533 41.9548 17.3199 42.1977 17.5096 42.5118C17.6992 42.8259 17.794 43.1885 17.794 43.5993C17.794 44.0103 17.6992 44.3726 17.5096 44.6867C17.3199 45.0008 17.0533 45.2438 16.7095 45.4157C16.3658 45.5875 15.9726 45.6734 15.5302 45.6734H13.7168V41.5251ZM15.4947 45.0217C15.7989 45.0217 16.0666 44.9634 16.2977 44.8469C16.5288 44.7304 16.7066 44.5644 16.8311 44.3491C16.9556 44.1337 17.0178 43.8838 17.0178 43.5994C17.0178 43.3149 16.9556 43.0651 16.8311 42.8497C16.7066 42.6344 16.5288 42.4684 16.2977 42.3519C16.0666 42.2354 15.7989 42.1771 15.4947 42.1771H14.4872V45.0217H15.4947V45.0217Z" fill="black" style="fill:black;fill-opacity:1;"/>
<path d="M18.5459 41.5251H20.3593C20.8017 41.5251 21.1949 41.6111 21.5386 41.783C21.8824 41.9548 22.149 42.1977 22.3387 42.5118C22.5283 42.8259 22.6231 43.1885 22.6231 43.5993C22.6231 44.0103 22.5283 44.3726 22.3387 44.6867C22.149 45.0008 21.8824 45.2438 21.5386 45.4157C21.1949 45.5875 20.8017 45.6734 20.3593 45.6734H18.5459V41.5251ZM20.3237 45.0217C20.6279 45.0217 20.8956 44.9634 21.1268 44.8469C21.3578 44.7304 21.5356 44.5644 21.6601 44.3491C21.7846 44.1337 21.8468 43.8838 21.8468 43.5994C21.8468 43.3149 21.7846 43.0651 21.6601 42.8497C21.5356 42.6344 21.3578 42.4684 21.1268 42.3519C20.8956 42.2354 20.6279 42.1771 20.3237 42.1771H19.3163V45.0217H20.3237V45.0217Z" fill="black" style="fill:black;fill-opacity:1;"/>
<path d="M23.376 41.5251H24.1464V45.0217H26.3154V45.6735H23.376V41.5251Z" fill="black" style="fill:black;fill-opacity:1;"/>
<path d="M29.9306 45.0276V45.6736H26.8193V41.5251H29.8477V42.1711H27.5898V43.2497H29.5929V43.8838H27.5898V45.0276H29.9306Z" fill="black" style="fill:black;fill-opacity:1;"/>
<path d="M31.0949 45.5966C30.7965 45.5057 30.5605 45.3853 30.3867 45.2351L30.6534 44.6366C30.8232 44.7709 31.0317 44.8805 31.2786 44.9654C31.5255 45.0504 31.7734 45.0928 32.0224 45.0928C32.3306 45.0928 32.5607 45.0434 32.7128 44.9447C32.8648 44.8459 32.941 44.7156 32.941 44.5535C32.941 44.435 32.8985 44.3372 32.8136 44.2602C32.7287 44.1831 32.621 44.1229 32.4907 44.0794C32.3603 44.036 32.1825 43.9866 31.9573 43.9312C31.6412 43.8561 31.3854 43.7811 31.1899 43.706C30.9943 43.6309 30.8263 43.5133 30.6861 43.3533C30.5458 43.1933 30.4757 42.977 30.4757 42.7044C30.4757 42.4754 30.538 42.2669 30.6624 42.0792C30.7869 41.8916 30.9744 41.7424 31.2254 41.6318C31.4763 41.5212 31.7834 41.4658 32.1469 41.4658C32.3997 41.4658 32.6486 41.4975 32.8937 41.5606C33.1386 41.6239 33.3499 41.7147 33.5278 41.8332L33.2848 42.4318C33.1031 42.3251 32.9134 42.2442 32.7159 42.1888C32.5184 42.1335 32.3268 42.1058 32.1411 42.1058C31.8368 42.1058 31.6107 42.1572 31.4626 42.26C31.3144 42.3627 31.2403 42.4991 31.2403 42.6689C31.2403 42.7874 31.2827 42.8843 31.3677 42.9592C31.4526 43.0343 31.5603 43.0936 31.6907 43.137C31.821 43.1805 31.9988 43.2299 32.224 43.2852C32.5322 43.3563 32.7849 43.4304 32.9825 43.5074C33.1801 43.5845 33.3489 43.7021 33.4893 43.8601C33.6295 44.0182 33.6997 44.2314 33.6997 44.5001C33.6997 44.7292 33.6374 44.9368 33.513 45.1224C33.3885 45.3081 33.1998 45.4563 32.947 45.5669C32.6941 45.6774 32.3859 45.7328 32.0225 45.7328C31.7023 45.7328 31.3931 45.6874 31.0949 45.5966Z" fill="black" style="fill:black;fill-opacity:1;"/>
<path d="M37.0688 41.7029C37.3355 41.8214 37.54 41.9914 37.6822 42.2126C37.8244 42.4339 37.8955 42.6966 37.8955 43.0008C37.8955 43.3011 37.8244 43.5629 37.6822 43.7861C37.5399 44.0093 37.3355 44.1802 37.0688 44.2987C36.8021 44.4173 36.489 44.4765 36.1295 44.4765H35.1932V45.6736H34.4229V41.5251H36.1296C36.489 41.5251 36.8021 41.5844 37.0688 41.7029ZM36.8585 43.6112C37.0323 43.469 37.1193 43.2655 37.1193 43.0008C37.1193 42.7362 37.0323 42.5327 36.8585 42.3904C36.6845 42.2482 36.4297 42.1771 36.094 42.1771H35.1932V43.8246H36.094C36.4297 43.8245 36.6845 43.7535 36.8585 43.6112Z" fill="black" style="fill:black;fill-opacity:1;"/>
<path d="M39.4419 45.4573C39.1021 45.2735 38.8355 45.0187 38.6419 44.6927C38.4483 44.3668 38.3516 44.0023 38.3516 43.5994C38.3516 43.1964 38.4483 42.8319 38.6419 42.506C38.8355 42.1801 39.1021 41.9253 39.4419 41.7416C39.7818 41.5578 40.163 41.4659 40.5858 41.4659C41.0085 41.4659 41.3897 41.5578 41.7296 41.7416C42.0693 41.9253 42.336 42.1792 42.5296 42.5031C42.7232 42.8271 42.82 43.1926 42.82 43.5994C42.82 44.0064 42.7231 44.3719 42.5296 44.6957C42.336 45.0197 42.0693 45.2735 41.7296 45.4573C41.3897 45.641 41.0085 45.7328 40.5858 45.7328C40.163 45.7328 39.7818 45.641 39.4419 45.4573ZM41.3325 44.8705C41.5537 44.746 41.7276 44.5722 41.854 44.349C41.9804 44.1259 42.0437 43.8759 42.0437 43.5993C42.0437 43.3227 41.9805 43.0729 41.854 42.8496C41.7276 42.6265 41.5537 42.4526 41.3325 42.3281C41.1112 42.2037 40.8623 42.1414 40.5858 42.1414C40.3091 42.1414 40.0602 42.2037 39.8391 42.3281C39.6177 42.4526 39.4439 42.6265 39.3175 42.8496C39.191 43.0728 39.1278 43.3227 39.1278 43.5993C39.1278 43.8759 39.191 44.1258 39.3175 44.349C39.4439 44.5722 39.6177 44.746 39.8391 44.8705C40.0602 44.9949 40.3091 45.0572 40.5858 45.0572C40.8622 45.0572 41.1112 44.995 41.3325 44.8705Z" fill="black" style="fill:black;fill-opacity:1;"/>
<path d="M46.2806 45.6736L45.4331 44.4587C45.3976 44.4627 45.3443 44.4646 45.2731 44.4646H44.3368V45.6736H43.5664V41.5251H45.2732C45.6327 41.5251 45.9458 41.5844 46.2125 41.7029C46.4792 41.8214 46.6836 41.9914 46.8258 42.2126C46.9681 42.4339 47.0391 42.6966 47.0391 43.0008C47.0391 43.3129 46.963 43.5816 46.8109 43.8068C46.6588 44.032 46.4405 44.1999 46.1561 44.3105L47.1103 45.6736H46.2806ZM46.002 42.3904C45.8281 42.2482 45.5733 42.1771 45.2375 42.1771H44.3368V43.8305H45.2375C45.5733 43.8305 45.8281 43.7585 46.002 43.6143C46.1758 43.47 46.2628 43.2656 46.2628 43.0009C46.2628 42.7361 46.1758 42.5327 46.002 42.3904Z" fill="black" style="fill:black;fill-opacity:1;"/>
<path d="M48.6874 42.177H47.3125V41.5251H50.8327V42.177H49.4578V45.6735H48.6875L48.6874 42.177Z" fill="black" style="fill:black;fill-opacity:1;"/>
<path d="M51.7717 45.5966C51.4733 45.5057 51.2373 45.3853 51.0635 45.2351L51.3302 44.6366C51.5 44.7709 51.7084 44.8805 51.9554 44.9654C52.2023 45.0504 52.4502 45.0928 52.6992 45.0928C53.0074 45.0928 53.2375 45.0434 53.3896 44.9447C53.5416 44.8459 53.6178 44.7156 53.6178 44.5535C53.6178 44.435 53.5752 44.3372 53.4903 44.2602C53.4054 44.1831 53.2977 44.1229 53.1674 44.0794C53.037 44.036 52.8592 43.9866 52.6341 43.9312C52.318 43.8561 52.0622 43.7811 51.8666 43.706C51.671 43.6309 51.5031 43.5133 51.3628 43.3533C51.2226 43.1933 51.1525 42.977 51.1525 42.7044C51.1525 42.4754 51.2148 42.2669 51.3392 42.0792C51.4637 41.8916 51.6512 41.7424 51.9022 41.6318C52.1531 41.5212 52.4602 41.4658 52.8237 41.4658C53.0765 41.4658 53.3254 41.4975 53.5704 41.5606C53.8154 41.6239 54.0267 41.7147 54.2046 41.8332L53.9616 42.4318C53.7799 42.3251 53.5902 42.2442 53.3927 42.1888C53.1951 42.1335 53.0035 42.1058 52.8178 42.1058C52.5136 42.1058 52.2875 42.1572 52.1393 42.26C51.9911 42.3627 51.9171 42.4991 51.9171 42.6689C51.9171 42.7874 51.9595 42.8843 52.0444 42.9592C52.1293 43.0343 52.2371 43.0936 52.3674 43.137C52.4977 43.1805 52.6756 43.2299 52.9008 43.2852C53.209 43.3563 53.4617 43.4304 53.6593 43.5074C53.8568 43.5845 54.0257 43.7021 54.166 43.8601C54.3062 44.0182 54.3764 44.2314 54.3764 44.5001C54.3764 44.7292 54.3142 44.9368 54.1897 45.1224C54.0653 45.3081 53.8766 45.4563 53.6237 45.5669C53.3709 45.6774 53.0627 45.7328 52.6993 45.7328C52.3791 45.7328 52.0699 45.6874 51.7717 45.5966Z" fill="black" style="fill:black;fill-opacity:1;"/>
<path d="M4.70312 46.5615H54.6332" stroke="black" style="stroke:black;stroke-opacity:1;" stroke-width="0.493915" stroke-miterlimit="10"/>
<path d="M4.70312 40.6666H54.6332" stroke="black" style="stroke:black;stroke-opacity:1;" stroke-width="0.493915" stroke-miterlimit="10"/>
</svg>
