<svg width="24" height="24" viewBox="0 0 24 24" fill="none" xmlns="http://www.w3.org/2000/svg">
<path d="M12.7684 23.1166H12.6381C12.5055 23.1166 12.2462 23.1166 12.0902 23.1166C10.098 23.0477 7.70667 22.8339 5.73646 21.4745C3.75306 20.1107 2.38416 17.5839 2.39954 13.4039C2.39661 9.27821 4.19837 6.43275 6.21912 4.99207C8.20618 3.57923 10.4262 3.16688 11.9862 3.16395V3.86634V4.56214C10.6671 4.56214 8.70643 4.93421 7.03431 6.13319C5.39661 7.30506 3.80213 9.6869 3.7992 13.4039C3.81458 17.3217 4.99305 19.2391 6.53626 20.3246C8.09412 21.4159 10.2101 21.6591 12.1159 21.7191H12.6381H12.7684C16.5118 21.6298 20.5079 20.3392 20.9547 13.3029C20.5446 5.03309 14.5475 4.64564 11.9862 4.56507V3.86634V3.16395C14.6486 3.08045 21.9772 4.00184 22.3522 13.308C22.0211 20.9384 17.0758 23.1195 13.0241 23.1195C12.9376 23.1195 12.8527 23.118 12.7684 23.1166Z" fill="#1C6AE2" style="fill:#1C6AE2;fill:color(display-p3 0.1092 0.4156 0.8882);fill-opacity:1;"/>
<path d="M9.42008 16.5467C9.08683 16.16 8.72867 15.6708 8.38517 15.1698C7.69523 14.1532 7.08365 13.1336 6.91593 12.8011H6.91813C6.74161 12.4554 6.88444 12.0365 7.23014 11.8629C7.57291 11.6893 7.99259 11.8292 8.16764 12.1749C8.2526 12.3514 8.8173 13.3058 9.41788 14.1971C9.83463 14.8504 10.3817 15.5301 10.6689 15.8363C10.7384 15.7748 10.8205 15.7 10.9106 15.6136C11.2563 15.2855 11.7294 14.7918 12.2802 14.1971C13.3839 13.0062 14.7968 11.3985 16.2104 9.75938C19.0185 6.49863 21.8573 3.05991 22.1313 2.67319C22.3568 2.35825 22.7934 2.28354 23.1068 2.51133C23.4189 2.73472 23.4936 3.17051 23.268 3.48472C22.5561 4.45737 13.3759 15.4964 11.3632 17.0814C11.1757 17.1883 11.1471 17.3172 10.6791 17.367C9.93424 17.266 9.80753 16.9129 9.42008 16.5467Z" fill="#1C6AE2" style="fill:#1C6AE2;fill:color(display-p3 0.1092 0.4156 0.8882);fill-opacity:1;"/>
</svg>
