<svg width="48" height="48" viewBox="0 0 48 48" fill="none" xmlns="http://www.w3.org/2000/svg">
<path d="M0 24.0005C0 10.7457 10.7452 0.000488281 24 0.000488281C37.2548 0.000488281 48 10.7457 48 24.0005C48 37.2553 37.2548 48.0005 24 48.0005C10.7452 48.0005 0 37.2553 0 24.0005Z" fill="white" style="fill:white;fill-opacity:1;"/>
<g clip-path="url(#clip0_108_33837)">
<path d="M36 23.0005C36 16.3736 30.6269 11.0005 24 11.0005C17.3731 11.0005 12 16.3736 12 23.0005C12 28.9895 16.3876 33.9542 22.1252 34.8554V26.47H19.0775V23.0005H22.1252V20.3561C22.1252 17.349 23.9173 15.6867 26.6579 15.6867C27.9707 15.6867 29.3444 15.9213 29.3444 15.9213V18.8745H27.8307C26.3406 18.8745 25.8748 19.7993 25.8748 20.7493V23.0005H29.2026L28.6711 26.47H25.8748V34.8554C31.6124 33.9559 36 28.9912 36 23.0005Z" fill="black" style="fill:black;fill-opacity:1;"/>
<path d="M28.6707 26.4698L29.2023 23.0003H25.8745V20.7491C25.8745 19.8007 26.3386 18.8743 27.8303 18.8743H29.3441V15.9211C29.3441 15.9211 27.9704 15.6865 26.6575 15.6865C23.917 15.6865 22.1248 17.347 22.1248 20.3559V23.0003H19.0771V26.4698H22.1248V34.8551C22.7357 34.9513 23.3618 35.0003 23.9997 35.0003C24.6375 35.0003 25.2636 34.9496 25.8745 34.8551V26.4698H28.6707Z" fill="#FEFEFE" style="fill:#FEFEFE;fill:color(display-p3 0.9961 0.9961 0.9961);fill-opacity:1;"/>
</g>
<defs>
<clipPath id="clip0_108_33837">
<rect width="24" height="24" fill="white" style="fill:white;fill-opacity:1;" transform="translate(12 11.0005)"/>
</clipPath>
</defs>
</svg>
