<svg width="32" height="32" viewBox="0 0 32 32" fill="none" xmlns="http://www.w3.org/2000/svg">
<g clip-path="url(#clip0_108_31474)">
<path d="M24 16C24 11.5821 20.4179 8 16 8C11.5821 8 8 11.5821 8 16C8 19.9927 10.925 23.3025 14.7501 23.9032V18.313H12.7183V16H14.7501V14.2371C14.7501 12.2323 15.9449 11.1242 17.7719 11.1242C18.6472 11.1242 19.5629 11.2806 19.5629 11.2806V13.2493H18.5538C17.5604 13.2493 17.2499 13.8658 17.2499 14.4992V16H19.4684L19.114 18.313H17.2499V23.9032C21.075 23.3036 24 19.9938 24 16Z" fill="white" style="fill:white;fill-opacity:1;"/>
</g>
<defs>
<clipPath id="clip0_108_31474">
<rect width="16" height="16" fill="white" style="fill:white;fill-opacity:1;" transform="translate(8 8)"/>
</clipPath>
</defs>
</svg>
