<svg width="40" height="40" viewBox="0 0 40 40" fill="none" xmlns="http://www.w3.org/2000/svg">
<g clip-path="url(#clip0_75_41759)">
<path d="M40 20C40 8.95514 31.0449 0 20 0C8.95514 0 0 8.95514 0 20C0 29.9817 7.31261 38.2562 16.8753 39.7581V25.7826H11.7958V20H16.8753V15.5927C16.8753 10.5808 19.8622 7.81043 24.4298 7.81043C26.6179 7.81043 28.9073 8.20138 28.9073 8.20138V13.1233H26.3845C23.901 13.1233 23.1247 14.6646 23.1247 16.2481V20H28.6711L27.7851 25.7826H23.1247V39.7581C32.6874 38.259 40 29.9845 40 20Z" fill="#1977F3" style="fill:#1977F3;fill:color(display-p3 0.0980 0.4667 0.9529);fill-opacity:1;"/>
<path d="M27.7842 25.7827L28.6702 20.0001H23.1238V16.2482C23.1238 14.6675 23.8973 13.1234 26.3836 13.1234H28.9064V8.20149C28.9064 8.20149 26.617 7.81055 24.4289 7.81055C19.8613 7.81055 16.8744 10.5781 16.8744 15.5929V20.0001H11.7949V25.7827H16.8744V39.7582C17.8925 39.9186 18.936 40.0001 19.9991 40.0001C21.0623 40.0001 22.1057 39.9157 23.1238 39.7582V25.7827H27.7842Z" fill="#FEFEFE" style="fill:#FEFEFE;fill:color(display-p3 0.9961 0.9961 0.9961);fill-opacity:1;"/>
</g>
<defs>
<clipPath id="clip0_75_41759">
<rect width="40" height="40" fill="white" style="fill:white;fill-opacity:1;"/>
</clipPath>
</defs>
</svg>
