<svg width="30" height="16" viewBox="0 0 30 16" fill="none" xmlns="http://www.w3.org/2000/svg">
<path d="M29.2479 12.1762C28.7861 12.1762 28.4119 11.7917 28.4119 11.3171C28.4119 10.8426 28.7861 10.458 29.2479 10.458C29.2562 10.458 29.2639 10.4602 29.2721 10.4605V8.90441C29.2639 8.90441 29.2562 8.90693 29.2479 8.90693C28.7861 8.90693 28.4119 8.52238 28.4119 8.04783C28.4119 7.57328 28.7861 7.18873 29.2479 7.18873C29.2562 7.18873 29.2639 7.19094 29.2721 7.19125V5.63512C29.2639 5.63512 29.2562 5.63764 29.2479 5.63764C28.7861 5.63764 28.4119 5.25309 28.4119 4.77854C28.4119 4.30399 28.7861 3.91944 29.2479 3.91944C29.2562 3.91944 29.2639 3.92164 29.2721 3.92196V1.94949C29.2639 1.94949 29.2562 1.95075 29.2479 1.95075C28.2285 1.95075 27.4019 1.10141 27.4019 0.0538117C27.4019 0.0355598 27.4041 0.0182519 27.4047 0H2.45984C2.46045 0.0179372 2.4626 0.0355598 2.4626 0.0538117C2.4626 1.10141 1.63606 1.95075 0.616598 1.95075C0.590874 1.95075 0.565763 1.94792 0.540039 1.94666V3.92731C0.565763 3.92479 0.590262 3.91944 0.616598 3.91944C1.0784 3.91944 1.45263 4.30399 1.45263 4.77854C1.45263 5.25309 1.0784 5.63764 0.616598 5.63764C0.590262 5.63764 0.565763 5.63229 0.540039 5.62977V7.1966C0.565763 7.19408 0.590262 7.18873 0.616598 7.18873C1.0784 7.18873 1.45263 7.57328 1.45263 8.04783C1.45263 8.52238 1.0784 8.90693 0.616598 8.90693C0.590262 8.90693 0.565763 8.90158 0.540039 8.89906V10.4659C0.565763 10.4634 0.590262 10.458 0.616598 10.458C1.0784 10.458 1.45263 10.8426 1.45263 11.3171C1.45263 11.7917 1.0784 12.1762 0.616598 12.1762C0.590262 12.1762 0.565763 12.1709 0.540039 12.1684V14.0892C0.565457 14.0883 0.590568 14.0851 0.616598 14.0851C1.63606 14.0851 2.4626 14.9345 2.4626 15.9821C2.4626 15.988 2.46168 15.994 2.46168 16H27.4029C27.4029 15.994 27.4019 15.988 27.4019 15.9821C27.4019 14.9345 28.2285 14.0851 29.2479 14.0851C29.2562 14.0851 29.2642 14.0864 29.2721 14.0864V12.1737C29.2639 12.1737 29.2562 12.1762 29.2479 12.1762Z" fill="white" style="fill:white;fill-opacity:1;"/>
<path d="M25.7938 1.76187H19.5291V2.30093H25.7938C26.0379 2.30093 26.2366 2.53537 26.2366 2.82394V13.3235C26.2366 13.6118 26.0379 13.8465 25.7938 13.8465H18.7751V11.4363L19.6127 10.6291V9.21022H18.2821V4.36339H19.3506C19.3506 4.36339 19.3533 4.36339 19.3545 4.36339C19.4994 4.36339 19.6167 4.24287 19.6167 4.09402C19.6167 3.98293 19.5514 3.8879 19.4583 3.84636L15.0292 1.15483C14.9469 1.1048 14.8446 1.10448 14.7622 1.15483L10.3052 3.86209C10.2036 3.92409 10.1546 4.04807 10.1858 4.16514C10.217 4.28252 10.3205 4.36371 10.4387 4.36371H11.5072V9.21053H10.1766V10.6295L11.001 11.4237V13.8465H4.03869C3.79462 13.8465 3.59587 13.6121 3.59587 13.3235V2.82362C3.59587 2.53537 3.79462 2.30061 4.03869 2.30061H10.2039V1.76155H4.03869C3.50523 1.76155 3.07129 2.23799 3.07129 2.82331V13.3229C3.07129 13.9085 3.50523 14.3846 4.03869 14.3846H25.7932C26.3266 14.3846 26.7606 13.9082 26.7606 13.3229V2.82362C26.7606 2.23799 26.3266 1.76187 25.7932 1.76187H25.7938ZM18.2505 13.8462H16.1488L18.2505 12.9437V13.8462ZM17.7575 9.21022H15.1664V8.38762C15.9158 8.25451 16.4878 7.58359 16.4878 6.7761C16.4878 5.96861 15.9158 5.2977 15.1664 5.16459V4.36308H17.7575V9.2099V9.21022ZM14.8948 5.67816C15.484 5.67816 15.9636 6.17096 15.9636 6.77642C15.9636 7.38188 15.4843 7.87468 14.8948 7.87468C14.3053 7.87468 13.826 7.38219 13.826 6.77642C13.826 6.17064 14.3053 5.67816 14.8948 5.67816ZM11.3982 3.82433L14.8957 1.69987L18.3917 3.82433H11.3982ZM12.0321 4.36339H14.6422V5.16175C13.8836 5.287 13.3018 5.96232 13.3018 6.77642C13.3018 7.59052 13.8836 8.26584 14.6422 8.39077V9.21022H12.0321V4.36339ZM19.0884 9.74928V10.3956L18.4159 11.0433H11.3737L10.7012 10.3956V9.74928M11.5256 11.5823H15.4497L11.5256 13.1341V11.5823ZM14.8378 13.8462H11.5256V13.7043C11.5375 13.7014 11.5492 13.7021 11.5611 13.6974L16.9108 11.582H18.2505V12.359" fill="black" style="fill:black;fill-opacity:1;"/>
<path d="M20.25 6.7944C20.25 6.94324 20.3676 7.06377 20.5121 7.06377H24.9936C25.1385 7.06377 25.2558 6.94293 25.2558 6.7944C25.2558 6.64586 25.1385 6.52502 24.9936 6.52502H20.5121C20.3673 6.52502 20.25 6.64555 20.25 6.7944Z" fill="black" style="fill:black;fill-opacity:1;"/>
<path d="M24.1271 3.9393L19.9065 5.11781C19.7665 5.15683 19.6842 5.30473 19.7221 5.44854C19.754 5.56844 19.8596 5.64743 19.9751 5.64743C19.9978 5.64743 20.021 5.64428 20.044 5.63799L24.2646 4.45948C24.4045 4.42046 24.4869 4.27224 24.4489 4.12874C24.4106 3.98493 24.2661 3.89996 24.1271 3.9393Z" fill="black" style="fill:black;fill-opacity:1;"/>
<path d="M19.8988 8.26186L23.9179 9.50205C23.943 9.50992 23.9684 9.51338 23.9935 9.51338C24.1062 9.51338 24.2107 9.43817 24.2447 9.32142C24.2863 9.17887 24.2076 9.02844 24.0689 8.98565L20.0498 7.74546C19.9108 7.70266 19.7647 7.78354 19.7231 7.92609C19.6814 8.06865 19.7601 8.21907 19.8988 8.26186Z" fill="black" style="fill:black;fill-opacity:1;"/>
<path d="M4.37891 6.7944C4.37891 6.94324 4.4965 7.06377 4.64105 7.06377H9.12252C9.26737 7.06377 9.38466 6.94293 9.38466 6.7944C9.38466 6.64586 9.26706 6.52502 9.12252 6.52502H4.64105C4.4962 6.52502 4.37891 6.64555 4.37891 6.7944Z" fill="black" style="fill:black;fill-opacity:1;"/>
<path d="M9.58876 5.63699C9.61265 5.64391 9.63653 5.64737 9.66011 5.64737C9.77465 5.64737 9.87968 5.56996 9.91245 5.45101C9.95196 5.30782 9.8708 5.15898 9.73116 5.11838L5.90595 4.00879C5.76631 3.96788 5.62176 4.05159 5.58226 4.19509C5.54275 4.33827 5.62391 4.48712 5.76355 4.52771L9.58876 5.6373V5.63699Z" fill="black" style="fill:black;fill-opacity:1;"/>
<path d="M6.10378 9.3756C6.12889 9.3756 6.15431 9.37182 6.17972 9.36395L9.73575 8.26192C9.87447 8.2188 9.95287 8.0687 9.91122 7.92614C9.86957 7.78391 9.72289 7.70303 9.58447 7.74583L6.02844 8.84787C5.88972 8.89098 5.81132 9.04108 5.85297 9.18364C5.88727 9.30007 5.99139 9.37528 6.10408 9.37528L6.10378 9.3756Z" fill="black" style="fill:black;fill-opacity:1;"/>
</svg>
