<svg width="40" height="40" viewBox="0 0 40 40" fill="none" xmlns="http://www.w3.org/2000/svg">
<path d="M35.9001 14.9626L39.0059 11.5835H32.1185C28.6705 9.22827 24.5064 7.85657 20.003 7.85657C15.5053 7.85657 11.3528 9.23123 7.91049 11.5835H1.00586L4.11166 14.9626C2.20795 16.6995 1.01452 19.2014 1.01452 21.9794C1.01452 27.2218 5.26491 31.4722 10.5074 31.4722C12.9978 31.4722 15.2667 30.5117 16.9605 28.9415L20.003 32.2544L23.0456 28.9444C24.7394 30.5146 27.0054 31.4722 29.4958 31.4722C34.7383 31.4722 38.9944 27.2218 38.9944 21.9794C38.9972 19.1985 37.8038 16.6967 35.9001 14.9626ZM10.5102 28.4037C6.96149 28.4037 4.08583 25.5281 4.08583 21.9794C4.08583 18.4307 6.96156 15.5549 10.5102 15.5549C14.0588 15.5549 16.9345 18.4307 16.9345 21.9794C16.9345 25.5281 14.0588 28.4037 10.5102 28.4037ZM20.0059 21.7924C20.0059 17.5651 16.9317 13.9359 12.874 12.3859C15.0682 11.4685 17.4752 10.9595 20.003 10.9595C22.5307 10.9595 24.9406 11.4685 27.1348 12.3859C23.0801 13.9388 20.0059 17.5651 20.0059 21.7924ZM29.4987 28.4037C25.95 28.4037 23.0743 25.5281 23.0743 21.9794C23.0743 18.4307 25.95 15.5549 29.4987 15.5549C33.0474 15.5549 35.9231 18.4307 35.9231 21.9794C35.9231 25.5281 33.0473 28.4037 29.4987 28.4037ZM29.4987 18.6089C27.6381 18.6089 26.1312 20.1159 26.1312 21.9765C26.1312 23.8371 27.6381 25.344 29.4987 25.344C31.3593 25.344 32.8662 23.8371 32.8662 21.9765C32.8661 20.1187 31.3593 18.6089 29.4987 18.6089ZM13.8777 21.9794C13.8777 23.8399 12.3708 25.3468 10.5102 25.3468C8.64962 25.3468 7.14272 23.8399 7.14272 21.9794C7.14272 20.1187 8.64962 18.6118 10.5102 18.6118C12.3708 18.6089 13.8777 20.1187 13.8777 21.9794Z" fill="black" style="fill:black;fill-opacity:1;"/>
</svg>
