<svg width="40" height="40" viewBox="0 0 40 40" fill="none" xmlns="http://www.w3.org/2000/svg">
<path d="M37.6 20.4166C37.6 19.1166 37.4833 17.8666 37.2667 16.6666H20V23.7666H29.8667C29.4333 26.05 28.1333 27.9833 26.1833 29.2833V33.9H32.1333C35.6 30.7 37.6 26 37.6 20.4166Z" fill="#4285F4" style="fill:#4285F4;fill:color(display-p3 0.2588 0.5216 0.9569);fill-opacity:1;"/>
<path d="M19.9995 38.3335C24.9495 38.3335 29.0995 36.7001 32.1328 33.9001L26.1828 29.2835C24.5495 30.3835 22.4661 31.0501 19.9995 31.0501C15.2328 31.0501 11.1828 27.8335 9.73281 23.5001H3.63281V28.2335C6.64948 34.2168 12.8328 38.3335 19.9995 38.3335Z" fill="#34A853" style="fill:#34A853;fill:color(display-p3 0.2039 0.6588 0.3255);fill-opacity:1;"/>
<path d="M9.73366 23.4834C9.36699 22.3834 9.15032 21.2168 9.15032 20.0001C9.15032 18.7834 9.36699 17.6168 9.73366 16.5168V11.7834H3.63366C2.38366 14.2501 1.66699 17.0334 1.66699 20.0001C1.66699 22.9668 2.38366 25.7501 3.63366 28.2168L8.38366 24.5168L9.73366 23.4834Z" fill="#FBBC05" style="fill:#FBBC05;fill:color(display-p3 0.9843 0.7373 0.0196);fill-opacity:1;"/>
<path d="M19.9995 8.96663C22.6995 8.96663 25.0995 9.89996 27.0161 11.7L32.2661 6.44996C29.0828 3.48329 24.9495 1.66663 19.9995 1.66663C12.8328 1.66663 6.64948 5.78329 3.63281 11.7833L9.73281 16.5166C11.1828 12.1833 15.2328 8.96663 19.9995 8.96663Z" fill="#EA4335" style="fill:#EA4335;fill:color(display-p3 0.9176 0.2627 0.2078);fill-opacity:1;"/>
</svg>
