<svg width="32" height="32" viewBox="0 0 32 32" fill="none" xmlns="http://www.w3.org/2000/svg">
<g clip-path="url(#clip0_108_31463)">
<path d="M23.04 16.1667C23.04 15.6467 22.9933 15.1467 22.9067 14.6667H16V17.5067H19.9467C19.7733 18.42 19.2533 19.1934 18.4733 19.7134V21.56H20.8533C22.24 20.28 23.04 18.4 23.04 16.1667Z" fill="white" style="fill:white;fill-opacity:1;"/>
<path d="M15.9998 23.3334C17.9798 23.3334 19.6398 22.6801 20.8531 21.5601L18.4731 19.7134C17.8198 20.1534 16.9865 20.4201 15.9998 20.4201C14.0931 20.4201 12.4731 19.1334 11.8931 17.4001H9.45312V19.2934C10.6598 21.6868 13.1331 23.3334 15.9998 23.3334Z" fill="white" style="fill:white;fill-opacity:1;"/>
<path d="M11.8937 17.3933C11.747 16.9533 11.6603 16.4867 11.6603 16C11.6603 15.5133 11.747 15.0467 11.8937 14.6067V12.7133H9.45366C8.95366 13.7 8.66699 14.8133 8.66699 16C8.66699 17.1867 8.95366 18.3 9.45366 19.2867L11.3537 17.8067L11.8937 17.3933Z" fill="white" style="fill:white;fill-opacity:1;"/>
<path d="M15.9998 11.5867C17.0798 11.5867 18.0398 11.96 18.8065 12.68L20.9065 10.58C19.6331 9.39335 17.9798 8.66669 15.9998 8.66669C13.1331 8.66669 10.6598 10.3134 9.45312 12.7134L11.8931 14.6067C12.4731 12.8734 14.0931 11.5867 15.9998 11.5867Z" fill="white" style="fill:white;fill-opacity:1;"/>
</g>
<defs>
<clipPath id="clip0_108_31463">
<rect width="16" height="16" fill="white" style="fill:white;fill-opacity:1;" transform="translate(8 8)"/>
</clipPath>
</defs>
</svg>
