<svg width="48" height="48" viewBox="0 0 48 48" fill="none" xmlns="http://www.w3.org/2000/svg">
<path d="M0 24.0005C0 10.7457 10.7452 0.000488281 24 0.000488281C37.2548 0.000488281 48 10.7457 48 24.0005C48 37.2553 37.2548 48.0005 24 48.0005C10.7452 48.0005 0 37.2553 0 24.0005Z" fill="white" style="fill:white;fill-opacity:1;"/>
<path d="M34.56 23.2505C34.56 22.4705 34.49 21.7205 34.36 21.0005H24V25.2605H29.92C29.66 26.6305 28.88 27.7905 27.71 28.5705V31.3405H31.28C33.36 29.4205 34.56 26.6005 34.56 23.2505Z" fill="black" style="fill:black;fill-opacity:1;"/>
<path d="M23.9997 34.0006C26.9697 34.0006 29.4597 33.0206 31.2797 31.3406L27.7097 28.5706C26.7297 29.2306 25.4797 29.6306 23.9997 29.6306C21.1397 29.6306 18.7097 27.7006 17.8397 25.1006H14.1797V27.9406C15.9897 31.5306 19.6997 34.0006 23.9997 34.0006Z" fill="black" style="fill:black;fill-opacity:1;"/>
<path d="M17.84 25.0903C17.62 24.4303 17.49 23.7303 17.49 23.0003C17.49 22.2703 17.62 21.5703 17.84 20.9103V18.0703H14.18C13.43 19.5503 13 21.2203 13 23.0003C13 24.7803 13.43 26.4503 14.18 27.9303L17.03 25.7103L17.84 25.0903Z" fill="black" style="fill:black;fill-opacity:1;"/>
<path d="M23.9997 16.3805C25.6197 16.3805 27.0597 16.9405 28.2097 18.0205L31.3597 14.8705C29.4497 13.0905 26.9697 12.0005 23.9997 12.0005C19.6997 12.0005 15.9897 14.4705 14.1797 18.0705L17.8397 20.9105C18.7097 18.3105 21.1397 16.3805 23.9997 16.3805Z" fill="black" style="fill:black;fill-opacity:1;"/>
</svg>
