<svg width="93" height="48" viewBox="0 0 93 48" fill="none" xmlns="http://www.w3.org/2000/svg">
<path d="M55.0959 15.1748H48.6182V4.01367H51.2184V13.0156H55.0959V15.1748Z" fill="black" style="fill:black;fill-opacity:1;"/>
<path d="M64.2046 11.8143H58.5176C58.6393 12.9699 59.506 13.4869 60.5552 13.4869C61.5892 13.4869 62.5016 13.0308 62.9577 12.7267L63.9765 14.0648C63.718 14.2625 62.6688 15.3573 60.1903 15.3573C57.7269 15.3573 55.9326 13.8367 55.9326 11.2061C55.9326 8.57545 57.879 7.07007 60.2359 7.07007C62.5928 7.07007 64.235 8.63628 64.235 10.9628C64.235 11.3429 64.2046 11.8143 64.2046 11.8143ZM61.8173 10.3393C61.8021 9.60945 61.2699 8.74272 60.1903 8.74272C59.1259 8.74272 58.5784 9.57904 58.5328 10.3393H61.8173Z" fill="black" style="fill:black;fill-opacity:1;"/>
<path d="M72.8871 15.1749H70.4086L70.3629 14.3385C70.0284 14.6731 69.3746 15.3573 68.0821 15.3573C66.6679 15.3573 65.1777 14.597 65.1777 12.818C65.1777 11.0389 66.82 10.4306 68.2797 10.3698L70.2869 10.2938V10.1113C70.2869 9.27499 69.6939 8.83402 68.6599 8.83402C67.6411 8.83402 66.6223 9.2902 66.2117 9.5487L65.5275 7.86084C66.2117 7.52631 67.4586 7.05493 68.9488 7.05493C70.439 7.05493 71.2905 7.38946 71.9291 7.98249C72.5374 8.56031 72.8871 9.33581 72.8871 10.6891V15.1749ZM70.3173 11.6623L69.04 11.7383C68.2493 11.7688 67.7779 12.1185 67.7779 12.7115C67.7779 13.3198 68.2797 13.6999 68.9944 13.6999C69.6939 13.6999 70.1653 13.2437 70.3173 12.97V11.6623Z" fill="black" style="fill:black;fill-opacity:1;"/>
<path d="M82.4519 7.20703L79.1675 15.1749H76.7497L73.4805 7.20703H76.1719L77.9966 12.2554L79.7909 7.20703H82.4519Z" fill="black" style="fill:black;fill-opacity:1;"/>
<path d="M90.9668 11.8143H85.295C85.4014 12.9699 86.2833 13.4869 87.3326 13.4869C88.3666 13.4869 89.2789 13.0308 89.7351 12.7267L90.7539 14.0648C90.4954 14.2625 89.4462 15.3573 86.9676 15.3573C84.5043 15.3573 82.71 13.8367 82.71 11.2061C82.71 8.57545 84.6563 7.07007 87.0132 7.07007C89.3701 7.07007 91.0124 8.63628 91.0124 10.9628C90.9972 11.3429 90.9668 11.8143 90.9668 11.8143ZM88.5946 10.3393C88.5794 9.60945 88.0472 8.74272 86.9676 8.74272C85.9032 8.74272 85.3558 9.57904 85.3102 10.3393H88.5946Z" fill="black" style="fill:black;fill-opacity:1;"/>
<path d="M58.7149 28.997H56.0234L51.1728 21.5309V28.997H48.6182V17.8207H51.4161L56.1451 25.2412L56.1603 17.8207H58.7149V28.997Z" fill="black" style="fill:black;fill-opacity:1;"/>
<path d="M64.6755 29.1642C62.1513 29.1642 60.2354 27.598 60.2354 25.013C60.2354 22.4432 62.1513 20.8618 64.6755 20.8618C67.1996 20.8618 69.1004 22.4432 69.1004 25.013C69.0852 27.598 67.1996 29.1642 64.6755 29.1642ZM64.6755 22.8994C63.535 22.8994 62.866 23.7813 62.866 24.9674C62.866 26.1535 63.535 27.0354 64.6755 27.0354C65.8159 27.0354 66.485 26.1383 66.485 24.9674C66.485 23.7966 65.8007 22.8994 64.6755 22.8994Z" fill="black" style="fill:black;fill-opacity:1;"/>
<path d="M56.9966 33.7108H54.1227V42.8039H51.4921V33.7108H48.6182V31.6276H56.9966V33.7108Z" fill="black" style="fill:black;fill-opacity:1;"/>
<path d="M62.5019 37.1929H62.3954C62.2434 37.1168 61.9089 36.9952 61.4527 36.9952C60.8749 36.9952 60.4491 37.3145 60.2514 37.573C60.0537 37.8315 59.8409 38.3485 59.8409 39.2457V42.7886H57.2559V34.8056H59.8409L59.8257 35.946H59.8561C60.3122 35.0793 60.9661 34.6687 61.8328 34.6687C62.365 34.6687 62.6387 34.8208 62.6387 34.8208L62.5019 37.1929Z" fill="black" style="fill:black;fill-opacity:1;"/>
<path d="M70.9711 42.8039H68.4925L68.4469 41.9676C68.1124 42.3021 67.4585 42.9864 66.166 42.9864C64.7519 42.9864 63.2617 42.2261 63.2617 40.447C63.2617 38.6679 64.904 38.0597 66.3637 37.9988L68.3709 37.9228V37.7403C68.3709 36.904 67.7779 36.463 66.7439 36.463C65.7251 36.463 64.7063 36.9192 64.2957 37.1777L63.6115 35.4899C64.2957 35.1553 65.5426 34.684 67.0328 34.684C68.523 34.684 69.3745 35.0185 70.0131 35.6115C70.6214 36.1893 70.9711 36.9648 70.9711 38.3182V42.8039ZM68.4013 39.2913L67.124 39.3674C66.3333 39.3978 65.8619 39.7475 65.8619 40.3405C65.8619 40.9488 66.3637 41.3289 67.0784 41.3289C67.7779 41.3289 68.2492 40.8728 68.4013 40.5991V39.2913Z" fill="black" style="fill:black;fill-opacity:1;"/>
<path d="M79.638 42.0284C79.5619 42.0892 78.7104 42.9864 76.5968 42.9864C74.4071 42.9864 72.3848 41.4962 72.3848 38.8504C72.3848 36.1741 74.4376 34.684 76.6272 34.684C78.6648 34.684 79.5924 35.5203 79.5924 35.5203L79.0297 37.4818C78.8016 37.2994 78.087 36.7672 76.9769 36.7672C75.8821 36.7672 75.0002 37.5275 75.0002 38.7895C75.0002 40.0516 75.7909 40.8423 77.0074 40.8423C78.2238 40.8423 79.0297 40.0668 79.0297 40.0668L79.638 42.0284Z" fill="black" style="fill:black;fill-opacity:1;"/>
<path d="M88.7163 39.4282H83.0293C83.1358 40.5838 84.0177 41.1008 85.0669 41.1008C86.1009 41.1008 87.0133 40.6447 87.4695 40.3406L88.4883 41.6787C88.2298 41.8763 87.1805 42.9712 84.702 42.9712C82.2386 42.9712 80.4443 41.4506 80.4443 38.82C80.4443 36.1893 82.3907 34.684 84.7476 34.684C87.1045 34.684 88.7468 36.2502 88.7468 38.5767C88.7468 38.9568 88.7163 39.4282 88.7163 39.4282ZM86.3442 37.9532C86.329 37.2233 85.7968 36.3566 84.7172 36.3566C83.6528 36.3566 83.1054 37.1929 83.0597 37.9532H86.3442Z" fill="black" style="fill:black;fill-opacity:1;"/>
<path d="M89.1572 34.6079H90.693V34.8968H90.1V36.5086H89.7655V34.8968H89.1572V34.6079Z" fill="black" style="fill:black;fill-opacity:1;"/>
<path d="M90.9062 34.6079H91.3776L91.9098 36.0981L92.4268 34.6079H92.883V36.5086H92.5637V35.0489L92.0315 36.5086H91.7578L91.2408 35.0489H91.2256V36.5086H90.9062V34.6079Z" fill="black" style="fill:black;fill-opacity:1;"/>
<path d="M25.5663 41.4202C24.9277 41.4202 24.2586 41.405 23.5895 41.3442C13.5233 40.6447 8.07955 33.0722 8.07955 26.3055C8.07955 22.6561 9.4937 19.2348 12.0787 16.6498C14.6637 14.0648 18.085 12.6507 21.7344 12.6507C25.3838 12.6507 28.8052 14.0648 31.3902 16.6498C32.0744 17.3341 32.0744 18.4441 31.3902 19.1284C30.7059 19.8126 29.5959 19.8126 28.9116 19.1284C26.9957 17.2124 24.4411 16.1632 21.7344 16.1632C19.0278 16.1632 16.4732 17.2124 14.5573 19.1284C12.6413 21.0443 11.5921 23.5837 11.5921 26.3055C11.5921 31.4908 15.8802 37.2842 23.8328 37.8468C33.7623 38.5463 39.5861 33.3307 45.1515 26.3208V8.49946C45.1515 4.78922 42.1103 1.74805 38.4001 1.74805H8.39887C4.68864 1.74805 1.64746 4.78922 1.64746 8.49946V15.2509C6.98472 9.36619 13.4472 4.95649 23.2094 5.65596C33.2757 6.35543 38.7042 13.928 38.7042 20.6946C38.7042 24.344 37.29 27.7653 34.705 30.3503C32.12 32.9353 28.6987 34.3495 25.0493 34.3495C21.3999 34.3495 17.9786 32.9353 15.3936 30.3503C14.7093 29.666 14.7093 28.556 15.3936 27.8718C16.0778 27.1875 17.1879 27.1875 17.8721 27.8718C19.7881 29.7877 22.3427 30.8369 25.0493 30.8369C27.756 30.8369 30.3105 29.7877 32.2265 27.8718C34.1424 25.9558 35.1916 23.4164 35.1916 20.6946C35.1916 15.5246 30.9036 9.71593 22.9509 9.15331C13.0519 8.43863 7.21281 13.6543 1.64746 20.6642V38.5007C1.64746 42.2109 4.68864 45.2521 8.39887 45.2521H38.4001C42.1103 45.2521 45.1515 42.2109 45.1515 38.5007V31.7493C40.1792 37.2234 34.2489 41.4202 25.5663 41.4202ZM23.3615 26.6553C21.7192 26.6553 20.3963 25.3324 20.3963 23.6901C20.3963 22.0479 21.7192 20.725 23.3615 20.725C25.0037 20.725 26.3266 22.0479 26.3266 23.6901C26.3266 25.3324 24.9885 26.6553 23.3615 26.6553Z" fill="black" style="fill:black;fill-opacity:1;"/>
</svg>
