<svg width="32" height="32" viewBox="0 0 32 32" fill="none" xmlns="http://www.w3.org/2000/svg">
<path d="M22.6923 13.8556L24 12.4329H21.1C19.6483 11.4412 17.895 10.8636 15.9988 10.8636C14.105 10.8636 12.3566 11.4425 10.9072 12.4329H8L9.30771 13.8556C8.50614 14.587 8.00365 15.6404 8.00365 16.8101C8.00365 19.0174 9.79328 20.8071 12.0006 20.8071C13.0492 20.8071 14.0046 20.4026 14.7178 19.7415L15.9988 21.1364L17.2799 19.7427C17.9931 20.4039 18.9472 20.8071 19.9958 20.8071C22.2031 20.8071 23.9952 19.0174 23.9952 16.8101C23.9964 15.6392 23.4939 14.5858 22.6923 13.8556ZM12.0018 19.5151C10.5076 19.5151 9.29683 18.3043 9.29683 16.8101C9.29683 15.3159 10.5077 14.1051 12.0018 14.1051C13.496 14.1051 14.7068 15.3159 14.7068 16.8101C14.7068 18.3043 13.496 19.5151 12.0018 19.5151ZM16 16.7314C16 14.9514 14.7056 13.4234 12.9971 12.7707C13.921 12.3844 14.9345 12.1701 15.9988 12.1701C17.0631 12.1701 18.0778 12.3844 19.0017 12.7707C17.2944 13.4246 16 14.9515 16 16.7314ZM19.997 19.5151C18.5028 19.5151 17.292 18.3043 17.292 16.8101C17.292 15.3159 18.5028 14.1051 19.997 14.1051C21.4912 14.1051 22.702 15.3159 22.702 16.8101C22.702 18.3043 21.4912 19.5151 19.997 19.5151ZM19.997 15.391C19.2136 15.391 18.5791 16.0255 18.5791 16.8089C18.5791 17.5923 19.2136 18.2268 19.997 18.2268C20.7804 18.2268 21.4149 17.5923 21.4149 16.8089C21.4148 16.0267 20.7804 15.391 19.997 15.391ZM13.4197 16.8101C13.4197 17.5935 12.7852 18.228 12.0018 18.228C11.2184 18.228 10.5839 17.5935 10.5839 16.8101C10.5839 16.0267 11.2184 15.3922 12.0018 15.3922C12.7852 15.391 13.4197 16.0267 13.4197 16.8101Z" fill="white" style="fill:white;fill-opacity:1;"/>
</svg>
