<svg width="40" height="40" viewBox="0 0 40 40" fill="none" xmlns="http://www.w3.org/2000/svg">
<path d="M20 39.9999C31.0457 39.9999 40 31.0456 40 19.9999C40 8.95418 31.0457 -0.00012207 20 -0.00012207C8.9543 -0.00012207 0 8.95418 0 19.9999C0 31.0456 8.9543 39.9999 20 39.9999Z" fill="#34E0A1" style="fill:#34E0A1;fill:color(display-p3 0.2039 0.8784 0.6314);fill-opacity:1;"/>
<path d="M32.3529 16.098L34.7663 13.4723H29.4144C26.735 11.6421 23.4993 10.5762 19.9998 10.5762C16.5048 10.5762 13.278 11.6444 10.6031 13.4723H5.23779L7.65121 16.098C6.1719 17.4477 5.24452 19.3919 5.24452 21.5505C5.24452 25.6243 8.54736 28.9271 12.6211 28.9271C14.5563 28.9271 16.3194 28.1807 17.6356 26.9606L19.9999 29.5349L22.3641 26.9628C23.6803 28.1829 25.4412 28.9271 27.3764 28.9271C31.4501 28.9271 34.7574 25.6243 34.7574 21.5505C34.7596 19.3896 33.8323 17.4455 32.3529 16.098ZM12.6233 26.5427C9.86571 26.5427 7.63114 24.3081 7.63114 21.5505C7.63114 18.793 9.86577 16.5583 12.6233 16.5583C15.3808 16.5583 17.6154 18.793 17.6154 21.5505C17.6154 24.3081 15.3808 26.5427 12.6233 26.5427ZM20.0021 21.4053C20.0021 18.1203 17.6133 15.3002 14.4602 14.0957C16.1652 13.3829 18.0356 12.9873 19.9998 12.9873C21.9641 12.9873 23.8366 13.3829 25.5417 14.0957C22.3909 15.3025 20.0021 18.1204 20.0021 21.4053ZM27.3786 26.5427C24.6211 26.5427 22.3864 24.3081 22.3864 21.5505C22.3864 18.793 24.6211 16.5583 27.3786 16.5583C30.1362 16.5583 32.3708 18.793 32.3708 21.5505C32.3708 24.3081 30.1362 26.5427 27.3786 26.5427ZM27.3786 18.9315C25.9328 18.9315 24.7618 20.1024 24.7618 21.5483C24.7618 22.9941 25.9328 24.165 27.3786 24.165C28.8244 24.165 29.9954 22.9941 29.9954 21.5483C29.9953 20.1047 28.8244 18.9315 27.3786 18.9315ZM15.24 21.5505C15.24 22.9963 14.0691 24.1673 12.6233 24.1673C11.1775 24.1673 10.0065 22.9963 10.0065 21.5505C10.0065 20.1047 11.1775 18.9337 12.6233 18.9337C14.0691 18.9315 15.24 20.1047 15.24 21.5505Z" fill="black" style="fill:black;fill-opacity:1;"/>
</svg>
