<svg width="48" height="48" viewBox="0 0 48 48" fill="none" xmlns="http://www.w3.org/2000/svg">
<path d="M0 24.0005C0 10.7457 10.7452 0.000488281 24 0.000488281C37.2548 0.000488281 48 10.7457 48 24.0005C48 37.2553 37.2548 48.0005 24 48.0005C10.7452 48.0005 0 37.2553 0 24.0005Z" fill="white" style="fill:white;fill-opacity:1;"/>
<path d="M34.0384 19.7839L36 17.6498H31.6501C29.4724 16.1622 26.8424 15.2959 23.9982 15.2959C21.1575 15.2959 18.5349 16.1641 16.3608 17.6498H12L13.9616 19.7839C12.7592 20.8809 12.0055 22.4611 12.0055 24.2156C12.0055 27.5266 14.6899 30.211 18.001 30.211C19.5738 30.211 21.0068 29.6044 22.0766 28.6127L23.9982 30.705L25.9198 28.6145C26.9896 29.6062 28.4208 30.211 29.9937 30.211C33.3047 30.211 35.9928 27.5266 35.9928 24.2156C35.9945 22.4592 35.2408 20.8791 34.0384 19.7839ZM18.0027 28.2731C15.7614 28.2731 13.9452 26.4569 13.9452 24.2156C13.9452 21.9743 15.7615 20.158 18.0027 20.158C20.244 20.158 22.0602 21.9743 22.0602 24.2156C22.0602 26.4569 20.244 28.2731 18.0027 28.2731ZM24 24.0975C24 21.4276 22.0584 19.1355 19.4957 18.1565C20.8815 17.5771 22.4017 17.2556 23.9982 17.2556C25.5947 17.2556 27.1166 17.5771 28.5025 18.1565C25.9416 19.1373 24 21.4276 24 24.0975ZM29.9955 28.2731C27.7542 28.2731 25.938 26.4569 25.938 24.2156C25.938 21.9743 27.7542 20.158 29.9955 20.158C32.2368 20.158 34.053 21.9743 34.053 24.2156C34.053 26.4569 32.2367 28.2731 29.9955 28.2731ZM29.9955 22.0869C28.8204 22.0869 27.8686 23.0386 27.8686 24.2137C27.8686 25.3888 28.8204 26.3406 29.9955 26.3406C31.1706 26.3406 32.1223 25.3888 32.1223 24.2137C32.1223 23.0404 31.1706 22.0869 29.9955 22.0869ZM20.1296 24.2156C20.1296 25.3907 19.1778 26.3424 18.0027 26.3424C16.8276 26.3424 15.8759 25.3907 15.8759 24.2156C15.8759 23.0404 16.8276 22.0887 18.0027 22.0887C19.1778 22.0869 20.1296 23.0404 20.1296 24.2156Z" fill="black" style="fill:black;fill-opacity:1;"/>
</svg>
