<svg width="48" height="48" viewBox="0 0 48 48" fill="none" xmlns="http://www.w3.org/2000/svg">
<path d="M0 24.0005C0 10.7457 10.7452 0.000488281 24 0.000488281C37.2548 0.000488281 48 10.7457 48 24.0005C48 37.2553 37.2548 48.0005 24 48.0005C10.7452 48.0005 0 37.2553 0 24.0005Z" fill="white" style="fill:white;fill-opacity:1;"/>
<path d="M20.212 26.5362L21.4809 26.2486C21.5074 26.2426 21.5523 26.2326 21.6053 26.2157C21.9557 26.1236 22.2561 25.9018 22.4429 25.597C22.6298 25.2923 22.6887 24.9283 22.6071 24.5819L22.602 24.5599C22.5601 24.3939 22.4868 24.2371 22.386 24.0975C22.2439 23.9208 22.068 23.7729 21.8682 23.6621C21.633 23.5308 21.3868 23.4192 21.1323 23.3286L19.7412 22.8302C18.9604 22.5456 18.1797 22.269 17.3909 21.9984C16.8803 21.8206 16.4471 21.6638 16.071 21.549C15.9995 21.5296 15.9284 21.5082 15.858 21.485C15.4035 21.3492 15.0834 21.2923 14.8134 21.2903C14.6328 21.2837 14.453 21.3158 14.2864 21.3842C14.1124 21.458 13.9561 21.5669 13.8278 21.7038C13.7641 21.7746 13.7043 21.8486 13.6484 21.9255C13.5398 22.0889 13.4503 22.2638 13.3814 22.4468C13.1229 23.1948 12.9941 23.9799 13.0002 24.7696C13.0053 25.4827 13.0247 26.3984 13.4252 27.0196C13.522 27.1794 13.6515 27.3172 13.8054 27.424C14.0907 27.6168 14.3782 27.6427 14.6788 27.6637C15.1273 27.6947 15.5604 27.5878 15.9936 27.489L20.209 26.5352L20.212 26.5362ZM34.3686 19.9361C34.0222 19.2237 33.5565 18.5733 32.9907 18.0117C32.9175 17.9403 32.8392 17.8742 32.7562 17.814C32.6796 17.7577 32.6 17.7053 32.5178 17.6572C32.4331 17.6117 32.346 17.5707 32.2568 17.5344C32.0809 17.4666 31.8923 17.436 31.7034 17.4445C31.523 17.4545 31.3467 17.5044 31.1867 17.5873C30.9451 17.7051 30.6832 17.8949 30.3346 18.2115C30.2867 18.2584 30.2266 18.3113 30.1716 18.3613C29.8852 18.6259 29.5652 18.9525 29.185 19.3319C28.5969 19.9142 28.019 20.4994 27.4432 21.0896L26.4138 22.1362C26.2258 22.3271 26.0547 22.5332 25.9022 22.7523C25.7716 22.9378 25.6792 23.1464 25.63 23.3665C25.6025 23.5356 25.6066 23.7082 25.6423 23.8758L25.6474 23.8978C25.7287 24.2439 25.9439 24.5455 26.2477 24.7393C26.5515 24.933 26.9201 25.0037 27.276 24.9364C27.3189 24.9305 27.3614 24.9225 27.4034 24.9124L32.8887 23.6701C33.3219 23.5722 33.7602 23.4824 34.1485 23.2607C34.4094 23.1139 34.657 22.967 34.8272 22.6714C34.9179 22.5086 34.9728 22.329 34.9883 22.1442C35.0729 21.4111 34.6825 20.5793 34.3686 19.9361ZM24.5487 22.1961C24.9462 21.7067 24.9462 20.9777 24.9808 20.3805C25.1011 18.3882 25.2264 16.3959 25.3274 14.4026C25.3651 13.6476 25.4476 12.9026 25.4017 12.1416C25.364 11.5145 25.36 10.7935 24.9553 10.2782C24.2419 9.36938 22.7192 9.44427 21.6807 9.58608C21.3603 9.62945 21.0423 9.6881 20.7277 9.76185C20.4118 9.83575 20.0979 9.91664 19.7921 10.0135C18.7953 10.3331 17.3939 10.9203 17.1575 12.0458C17.023 12.6819 17.341 13.332 17.5856 13.9133C17.8842 14.6163 18.2908 15.2504 18.6618 15.9126C19.6433 17.6612 20.6421 19.3999 21.6379 21.1395C21.9365 21.6588 22.2596 22.3159 22.8354 22.5856C22.8742 22.6015 22.9129 22.6155 22.9526 22.6285C23.2105 22.7244 23.4928 22.7424 23.7608 22.6814L23.8088 22.6714C24.0574 22.6045 24.2817 22.4717 24.458 22.289C24.4906 22.259 24.5191 22.229 24.5487 22.1961ZM24.0727 27.5299C23.9176 27.3161 23.6974 27.1558 23.4437 27.072C23.19 26.9883 22.9157 26.9853 22.6601 27.0635C22.6 27.0829 22.5414 27.1066 22.4848 27.1344C22.3972 27.1782 22.3137 27.2293 22.2351 27.2872C22.0107 27.4605 21.8103 27.6615 21.6389 27.8854C21.5951 27.9403 21.5543 28.0132 21.5013 28.0612L20.6187 29.2496C20.1193 29.9167 19.625 30.5848 19.1368 31.2629C18.8167 31.7013 18.5416 32.0718 18.3224 32.3983C18.2817 32.4603 18.2389 32.5282 18.2001 32.5841C17.9382 32.9796 17.7904 33.2692 17.714 33.5268C17.6569 33.698 17.6388 33.8793 17.661 34.0581C17.6854 34.2438 17.7496 34.4226 17.8485 34.5834C17.9015 34.6633 17.9586 34.7412 18.0197 34.8161C18.1518 34.965 18.3005 35.099 18.4631 35.2155C19.0726 35.631 19.7391 35.9296 20.4403 36.1603C21.0243 36.35 21.6307 36.4639 22.2443 36.4978C22.3493 36.5028 22.4542 36.5008 22.5582 36.4918C22.6546 36.483 22.7505 36.4697 22.8456 36.4519C22.9408 36.4302 23.0347 36.4035 23.1269 36.372C23.3063 36.3061 23.4695 36.2041 23.6059 36.0724C23.7354 35.9456 23.8353 35.7928 23.8974 35.624C23.9993 35.3743 24.0666 35.0588 24.1115 34.5894C24.1145 34.5225 24.1247 34.4426 24.1318 34.3697C24.1665 33.9802 24.1828 33.5208 24.2073 32.9835C24.2511 32.1557 24.2847 31.3318 24.3112 30.5059L24.3683 29.0359C24.3815 28.6983 24.3703 28.3228 24.2745 27.9863C24.2324 27.8246 24.1643 27.6706 24.0727 27.5299ZM34.0333 29.8298C33.8498 29.6311 33.5889 29.4343 33.1772 29.1907C33.1181 29.1577 33.0477 29.1148 32.9835 29.0768C32.6411 28.8741 32.2283 28.6624 31.7462 28.4057C31.0053 28.0063 30.2643 27.6188 29.5152 27.2333L28.1933 26.5462C28.125 26.5263 28.0557 26.4783 27.9905 26.4474C27.7363 26.3201 27.4664 26.2258 27.1874 26.1667C27.0913 26.1486 26.9938 26.1385 26.8959 26.1368C26.8325 26.1365 26.7692 26.1401 26.7063 26.1478C26.4417 26.1878 26.1967 26.3087 26.0064 26.4933C25.816 26.6778 25.69 26.9165 25.6464 27.1754C25.627 27.3402 25.6331 27.5069 25.6657 27.6687C25.7299 28.0142 25.8869 28.3548 26.05 28.6534L26.7552 29.9506C27.1486 30.6817 27.5461 31.4087 27.9538 32.1337C28.2168 32.6061 28.4359 33.0105 28.6407 33.3461C28.6795 33.409 28.7233 33.4769 28.7569 33.5358C29.0066 33.9383 29.2064 34.1919 29.4092 34.3747C29.5443 34.502 29.7065 34.5985 29.8841 34.6572C30.0617 34.7159 30.2504 34.7354 30.4366 34.7142C30.5336 34.7026 30.6298 34.686 30.725 34.6643C30.92 34.6131 31.1084 34.5404 31.2866 34.4476C31.823 34.1529 32.3175 33.7903 32.7573 33.369C33.2852 32.8597 33.752 32.3045 34.1148 31.6693C34.1658 31.5794 34.2086 31.4866 34.2453 31.3897C34.2794 31.301 34.309 31.2107 34.334 31.1191C34.3554 31.0252 34.3717 30.9313 34.3829 30.8364C34.4012 30.65 34.3793 30.4618 34.3187 30.2842C34.2588 30.1137 34.1614 29.9582 34.0333 29.8288V29.8298Z" fill="black" style="fill:black;fill-opacity:1;"/>
</svg>
