<svg width="32" height="32" viewBox="0 0 32 32" fill="none" xmlns="http://www.w3.org/2000/svg">
<path d="M13.4745 18.3572L14.3204 18.1654C14.3381 18.1614 14.368 18.1548 14.4033 18.1435C14.637 18.0821 14.8372 17.9342 14.9618 17.731C15.0864 17.5279 15.1256 17.2852 15.0713 17.0543L15.0679 17.0396C15.0399 16.929 14.991 16.8244 14.9238 16.7314C14.8291 16.6135 14.7118 16.515 14.5786 16.4411C14.4218 16.3535 14.2577 16.2791 14.0881 16.2187L13.1606 15.8865C12.6401 15.6968 12.1197 15.5123 11.5938 15.3319C11.2534 15.2134 10.9646 15.1089 10.7139 15.0323C10.6661 15.0194 10.6188 15.0052 10.5719 14.9897C10.2688 14.8992 10.0555 14.8612 9.87541 14.8599C9.75506 14.8555 9.63519 14.8768 9.52412 14.9225C9.40809 14.9717 9.30391 15.0443 9.21837 15.1355C9.17593 15.1827 9.13601 15.2321 9.09878 15.2833C9.02639 15.3923 8.96668 15.5089 8.92076 15.6308C8.74845 16.1295 8.66256 16.6529 8.66664 17.1794C8.67004 17.6548 8.68295 18.2653 8.94998 18.6794C9.01453 18.7859 9.10082 18.8778 9.20342 18.949C9.39367 19.0775 9.58528 19.0948 9.78572 19.1088C10.0847 19.1295 10.3735 19.0582 10.6622 18.9923L13.4725 18.3565L13.4745 18.3572ZM22.9122 13.9571C22.6813 13.4822 22.3708 13.0485 21.9936 12.6742C21.9449 12.6265 21.8926 12.5825 21.8373 12.5423C21.7862 12.5048 21.7332 12.4699 21.6783 12.4378C21.6219 12.4075 21.5638 12.3802 21.5044 12.3559C21.3871 12.3107 21.2614 12.2903 21.1354 12.296C21.0152 12.3027 20.8976 12.3359 20.791 12.3912C20.6299 12.4698 20.4553 12.5963 20.2229 12.8073C20.191 12.8386 20.1509 12.8739 20.1142 12.9072C19.9233 13.0836 19.7099 13.3013 19.4565 13.5543C19.0644 13.9425 18.6792 14.3326 18.2953 14.7261L17.609 15.4238C17.4837 15.551 17.3696 15.6885 17.268 15.8346C17.1809 15.9582 17.1193 16.0973 17.0865 16.244C17.0682 16.3567 17.0709 16.4718 17.0947 16.5836L17.0981 16.5982C17.1523 16.8289 17.2958 17.03 17.4983 17.1592C17.7008 17.2883 17.9466 17.3354 18.1839 17.2906C18.2124 17.2867 18.2408 17.2813 18.2688 17.2746L21.9257 16.4464C22.2144 16.3812 22.5066 16.3212 22.7655 16.1734C22.9394 16.0756 23.1045 15.9777 23.218 15.7806C23.2784 15.6721 23.315 15.5523 23.3254 15.4291C23.3818 14.9404 23.1215 14.3859 22.9122 13.9571ZM16.3656 15.4637C16.6306 15.1375 16.6306 14.6515 16.6537 14.2534C16.7339 12.9252 16.8175 11.5969 16.8847 10.2681C16.9099 9.76475 16.9649 9.26808 16.9343 8.76077C16.9092 8.34266 16.9065 7.86198 16.6367 7.51844C16.1611 6.91259 15.146 6.96252 14.4536 7.05706C14.24 7.08597 14.028 7.12508 13.8183 7.17424C13.6077 7.22351 13.3984 7.27743 13.1946 7.34201C12.5301 7.55506 11.5958 7.94653 11.4382 8.69685C11.3485 9.12095 11.5605 9.55436 11.7235 9.94184C11.9226 10.4105 12.1937 10.8333 12.4411 11.2747C13.0954 12.4405 13.7612 13.5996 14.4251 14.7593C14.6242 15.1055 14.8396 15.5436 15.2235 15.7234C15.2493 15.734 15.2751 15.7434 15.3016 15.752C15.4735 15.8159 15.6617 15.8279 15.8404 15.7873L15.8723 15.7806C16.0381 15.736 16.1876 15.6475 16.3052 15.5257C16.3269 15.5057 16.3459 15.4857 16.3656 15.4637ZM16.0483 19.0196C15.9449 18.8771 15.7981 18.7702 15.629 18.7144C15.4598 18.6585 15.277 18.6565 15.1066 18.7087C15.0665 18.7216 15.0274 18.7374 14.9897 18.756C14.9313 18.7851 14.8756 18.8192 14.8232 18.8578C14.6737 18.9733 14.5401 19.1074 14.4258 19.2566C14.3965 19.2932 14.3694 19.3418 14.334 19.3738L13.7456 20.1661C13.4127 20.6108 13.0831 21.0562 12.7577 21.5083C12.5443 21.8005 12.3609 22.0475 12.2148 22.2652C12.1876 22.3065 12.1591 22.3518 12.1333 22.3891C11.9586 22.6527 11.8601 22.8458 11.8092 23.0176C11.7711 23.1317 11.759 23.2526 11.7738 23.3717C11.7901 23.4956 11.8329 23.6147 11.8988 23.7219C11.9342 23.7752 11.9722 23.8271 12.013 23.8771C12.101 23.9764 12.2002 24.0657 12.3086 24.1434C12.7149 24.4203 13.1592 24.6194 13.6267 24.7732C14.016 24.8997 14.4203 24.9756 14.8294 24.9982C14.8993 25.0015 14.9693 25.0002 15.0386 24.9942C15.1029 24.9883 15.1668 24.9794 15.2302 24.9676C15.2937 24.9531 15.3563 24.9353 15.4178 24.9143C15.5373 24.8704 15.6461 24.8024 15.7371 24.7146C15.8234 24.63 15.89 24.5282 15.9315 24.4157C15.9994 24.2492 16.0442 24.0388 16.0741 23.7259C16.0762 23.6813 16.083 23.6281 16.0877 23.5795C16.1108 23.3198 16.1217 23.0136 16.138 22.6554C16.1672 22.1034 16.1896 21.5542 16.2073 21.0036L16.2454 20.0236C16.2542 19.7986 16.2467 19.5482 16.1828 19.3239C16.1548 19.2161 16.1094 19.1134 16.0483 19.0196ZM22.6887 20.5529C22.5664 20.4204 22.3925 20.2892 22.118 20.1268C22.0785 20.1048 22.0317 20.0762 21.9889 20.0509C21.7606 19.9157 21.4854 19.7746 21.164 19.6035C20.67 19.3372 20.1761 19.0789 19.6766 18.8219L18.7954 18.3638C18.7499 18.3505 18.7037 18.3186 18.6602 18.2979C18.4907 18.2131 18.3107 18.1502 18.1248 18.1108C18.0607 18.0987 17.9957 18.092 17.9304 18.0909C17.8882 18.0906 17.846 18.0931 17.804 18.0982C17.6276 18.1249 17.4643 18.2055 17.3374 18.3285C17.2105 18.4515 17.1265 18.6107 17.0974 18.7833C17.0845 18.8931 17.0886 19.0043 17.1103 19.1121C17.1531 19.3425 17.2578 19.5695 17.3665 19.7686L17.8367 20.6334C18.0989 21.1208 18.3639 21.6055 18.6357 22.0888C18.811 22.4037 18.9571 22.6733 19.0937 22.897C19.1195 22.939 19.1487 22.9843 19.1711 23.0235C19.3376 23.2918 19.4708 23.461 19.606 23.5828C19.696 23.6677 19.8042 23.732 19.9226 23.7711C20.041 23.8103 20.1667 23.8232 20.2909 23.8092C20.3555 23.8014 20.4197 23.7903 20.4832 23.7759C20.6131 23.7418 20.7387 23.6933 20.8576 23.6314C21.2152 23.435 21.5449 23.1932 21.838 22.9124C22.19 22.5728 22.5012 22.2026 22.7431 21.7792C22.777 21.7193 22.8056 21.6574 22.83 21.5928C22.8528 21.5337 22.8725 21.4735 22.8891 21.4124C22.9034 21.3498 22.9143 21.2872 22.9218 21.224C22.9339 21.0997 22.9194 20.9742 22.8789 20.8558C22.8391 20.7421 22.7741 20.6385 22.6887 20.5522V20.5529Z" fill="white" style="fill:white;fill-opacity:1;"/>
</svg>
