<svg width="40" height="40" viewBox="0 0 40 40" fill="none" xmlns="http://www.w3.org/2000/svg">
<path d="M14.6845 25.2381L16.5643 24.8121C16.6036 24.8032 16.67 24.7884 16.7485 24.7632C17.2678 24.6268 17.7127 24.2982 17.9896 23.8467C18.2664 23.3952 18.3536 22.856 18.2328 22.3428L18.2252 22.3102C18.1631 22.0643 18.0545 21.832 17.9051 21.6252C17.6946 21.3634 17.4341 21.1443 17.1381 20.9802C16.7896 20.7856 16.4249 20.6203 16.0479 20.486L13.9869 19.7478C12.8303 19.3261 11.6737 18.9163 10.505 18.5154C9.74856 18.252 9.10685 18.0197 8.54969 17.8496C8.44364 17.8208 8.33841 17.7893 8.23411 17.7549C7.56069 17.5537 7.08658 17.4694 6.68645 17.4664C6.41902 17.4566 6.15263 17.5041 5.90582 17.6055C5.64796 17.7149 5.41646 17.8762 5.22636 18.0789C5.13205 18.1838 5.04335 18.2934 4.96061 18.4074C4.79975 18.6495 4.66706 18.9086 4.56502 19.1796C4.1821 20.2878 3.99123 21.451 4.00031 22.6209C4.00786 23.6773 4.03655 25.034 4.62994 25.9542C4.77339 26.1909 4.96515 26.3951 5.19314 26.5534C5.61592 26.839 6.04171 26.8774 6.48714 26.9085C7.1515 26.9544 7.79322 26.796 8.43493 26.6496L14.6799 25.2367L14.6845 25.2381ZM35.6572 15.4602C35.1441 14.4048 34.454 13.4411 33.6158 12.6092C33.5075 12.5034 33.3914 12.4055 33.2685 12.3163C33.155 12.2329 33.037 12.1553 32.9152 12.084C32.7897 12.0167 32.6607 11.9559 32.5287 11.902C32.268 11.8016 31.9886 11.7562 31.7088 11.7689C31.4415 11.7837 31.1803 11.8577 30.9432 11.9805C30.5854 12.155 30.1974 12.4361 29.681 12.9051C29.61 12.9747 29.5209 13.0531 29.4394 13.1271C29.0151 13.5191 28.541 14.0029 27.9778 14.5651C27.1065 15.4277 26.2504 16.2946 25.3973 17.169L23.8723 18.7195C23.5938 19.0023 23.3403 19.3077 23.1143 19.6324C22.9209 19.9071 22.7839 20.2162 22.7112 20.5423C22.6704 20.7928 22.6765 21.0485 22.7293 21.2968L22.7368 21.3293C22.8574 21.8421 23.1762 22.289 23.6263 22.576C24.0763 22.863 24.6224 22.9677 25.1497 22.868C25.2132 22.8592 25.2762 22.8474 25.3384 22.8325L33.4648 20.992C34.1065 20.847 34.7558 20.7139 35.3311 20.3854C35.7176 20.1679 36.0845 19.9505 36.3367 19.5125C36.471 19.2713 36.5522 19.0052 36.5752 18.7314C36.7005 17.6454 36.1222 16.413 35.6572 15.4602ZM21.1092 18.8083C21.698 18.0833 21.698 17.0033 21.7494 16.1186C21.9275 13.167 22.1133 10.2154 22.2627 7.26237C22.3186 6.14388 22.4409 5.04019 22.373 3.91282C22.3171 2.9837 22.3111 1.91551 21.7116 1.15209C20.6547 -0.194241 18.3989 -0.0832793 16.8603 0.126808C16.3856 0.191049 15.9145 0.277948 15.4485 0.387197C14.9804 0.496679 14.5154 0.616518 14.0624 0.760028C12.5857 1.23346 10.5096 2.1034 10.1593 3.77079C9.95994 4.71322 10.431 5.67636 10.7934 6.53743C11.2358 7.57899 11.8383 8.51846 12.3879 9.49936C13.8419 12.0899 15.3217 14.6657 16.7968 17.243C17.2392 18.0123 17.7179 18.9858 18.571 19.3853C18.6284 19.409 18.6857 19.4297 18.7446 19.4489C19.1266 19.5909 19.5449 19.6176 19.942 19.5273L20.013 19.5125C20.3814 19.4134 20.7136 19.2166 20.9748 18.9459C21.0231 18.9015 21.0654 18.8571 21.1092 18.8083ZM20.404 26.7102C20.1742 26.3935 19.848 26.156 19.4721 26.0319C19.0962 25.9078 18.6899 25.9034 18.3113 26.0193C18.2222 26.0481 18.1354 26.0832 18.0516 26.1244C17.9218 26.1892 17.7981 26.2649 17.6817 26.3507C17.3493 26.6074 17.0523 26.9053 16.7984 27.2369C16.7334 27.3183 16.673 27.4263 16.5945 27.4973L15.2869 29.2579C14.5471 30.2462 13.8148 31.236 13.0915 32.2406C12.6174 32.8901 12.2097 33.4389 11.8851 33.9227C11.8247 34.0145 11.7613 34.1151 11.7039 34.1979C11.3159 34.7838 11.0969 35.2129 10.9837 35.5946C10.8991 35.8481 10.8723 36.1168 10.9052 36.3816C10.9414 36.6568 11.0365 36.9217 11.183 37.1599C11.2615 37.2782 11.346 37.3936 11.4366 37.5046C11.6323 37.7253 11.8526 37.9238 12.0935 38.0964C12.9964 38.7118 13.9839 39.1542 15.0227 39.496C15.8879 39.7771 16.7863 39.9457 17.6952 39.996C17.8508 40.0034 18.0063 40.0005 18.1603 39.9872C18.3031 39.9741 18.4452 39.9543 18.5861 39.928C18.7271 39.8958 18.8662 39.8563 19.0028 39.8096C19.2685 39.7121 19.5103 39.5608 19.7125 39.3658C19.9042 39.1779 20.0522 38.9515 20.1443 38.7015C20.2953 38.3316 20.395 37.8641 20.4614 37.1687C20.4659 37.0696 20.481 36.9512 20.4916 36.8432C20.5429 36.2662 20.5671 35.5857 20.6033 34.7897C20.6683 33.5632 20.7181 32.3426 20.7574 31.1191L20.8419 28.9413C20.8615 28.4412 20.8449 27.8849 20.703 27.3864C20.6406 27.1469 20.5397 26.9186 20.404 26.7102ZM35.1604 30.1175C34.8887 29.8231 34.5021 29.5316 33.8921 29.1706C33.8045 29.1218 33.7004 29.0582 33.6052 29.002C33.0979 28.7016 32.4864 28.388 31.7722 28.0077C30.6745 27.416 29.5768 26.8419 28.467 26.2708L26.5086 25.2529C26.4075 25.2234 26.3048 25.1523 26.2082 25.1065C25.8316 24.918 25.4316 24.7783 25.0183 24.6907C24.876 24.6638 24.7315 24.649 24.5865 24.6464C24.4926 24.6459 24.3988 24.6513 24.3057 24.6626C23.9136 24.7219 23.5507 24.9011 23.2687 25.1745C22.9867 25.4479 22.8 25.8015 22.7353 26.185C22.7067 26.4291 22.7157 26.6762 22.764 26.9159C22.8592 27.4278 23.0917 27.9323 23.3333 28.3747L24.3781 30.2965C24.961 31.3795 25.5498 32.4566 26.1538 33.5307C26.5433 34.2305 26.868 34.8297 27.1715 35.3268C27.2289 35.42 27.2938 35.5206 27.3436 35.6079C27.7135 36.2041 28.0095 36.5799 28.3099 36.8506C28.5101 37.0393 28.7503 37.1822 29.0135 37.2692C29.2766 37.3561 29.5561 37.385 29.8319 37.3537C29.9756 37.3365 30.1183 37.3118 30.2593 37.2797C30.5481 37.2039 30.8272 37.0962 31.0912 36.9586C31.886 36.5221 32.6186 35.9849 33.27 35.3608C34.0522 34.6063 34.7437 33.7837 35.2812 32.8427C35.3567 32.7096 35.4201 32.572 35.4745 32.4285C35.5251 32.297 35.5689 32.1632 35.6059 32.0275C35.6376 31.8884 35.6617 31.7494 35.6783 31.6088C35.7054 31.3326 35.673 31.0539 35.5832 30.7907C35.4946 30.5381 35.3502 30.3077 35.1604 30.116V30.1175Z" fill="#E14B43" style="fill:#E14B43;fill:color(display-p3 0.8824 0.2941 0.2627);fill-opacity:1;"/>
</svg>
